<?xml version="1.0" standalone="no"?>
<!DOCTYPE svg PUBLIC "-//W3C//DTD SVG 20010904//EN"
 "http://www.w3.org/TR/2001/REC-SVG-20010904/DTD/svg10.dtd">
<svg version="1.0" xmlns="http://www.w3.org/2000/svg"
 viewBox="50 50 924 924"
 preserveAspectRatio="xMidYMid meet">

<g transform="translate(0.000000,1024.000000) scale(0.100000,-0.100000)"
fill="#000000" stroke="none">
<path d="M3790 7860 c-176 -31 -353 -103 -513 -207 -95 -62 -281 -249 -342
-343 -69 -107 -140 -260 -171 -370 -25 -89 -27 -113 -33 -393 -5 -188 -11
-301 -18 -305 -26 -17 -33 -57 -33 -180 0 -114 2 -132 20 -155 17 -21 20 -40
20 -126 0 -88 -3 -104 -20 -121 -32 -32 -23 -118 14 -142 8 -5 11 -311 11
-1080 0 -1185 -3 -1119 64 -1306 167 -462 549 -777 1021 -841 41 -5 172 -13
290 -16 130 -4 217 -11 221 -17 4 -7 9 -7 13 1 4 6 22 11 39 10 31 -1 31 -1 7
-9 -24 -8 -23 -8 8 -9 20 -1 31 3 27 9 -4 6 8 10 30 10 20 0 34 -4 31 -9 -7
-11 37 -23 57 -15 8 3 17 -1 20 -10 3 -8 -1 -17 -9 -20 -8 -3 -14 -1 -14 4 0
5 -8 8 -18 7 -10 0 -18 -9 -18 -18 0 -14 3 -15 13 -7 10 8 17 6 28 -8 13 -16
14 -17 9 -1 -3 9 -1 17 5 17 6 0 11 -4 11 -10 0 -5 4 -10 8 -10 10 0 9 30 -2
48 -4 7 -1 12 8 12 9 0 16 -7 16 -15 0 -9 6 -12 15 -9 8 4 12 10 9 15 -3 5 0
9 6 9 7 0 9 -7 6 -16 -3 -9 -6 -18 -6 -20 0 -2 -7 -4 -15 -4 -17 0 -20 -31 -4
-47 15 -15 59 7 59 29 0 25 18 31 36 13 9 -9 23 -14 30 -11 8 3 14 1 14 -4 0
-6 -7 -10 -16 -10 -10 0 -14 -6 -10 -15 3 -8 1 -15 -5 -15 -6 0 -13 9 -16 20
-3 11 -10 20 -15 20 -5 0 -6 -4 -3 -10 3 -5 2 -10 -3 -10 -6 0 -12 -6 -15 -13
-4 -10 2 -13 21 -10 22 4 24 2 12 -7 -12 -9 -11 -10 7 -5 17 5 25 0 37 -22
l16 -28 -6 28 c-8 33 2 77 17 77 8 0 7 -6 -2 -16 -19 -23 9 -39 32 -18 14 13
17 13 22 0 3 -8 -4 -21 -16 -31 -12 -9 -17 -13 -10 -10 6 3 14 1 18 -5 8 -13
25 -13 25 1 0 5 -4 7 -10 4 -13 -8 -13 1 3 27 23 42 32 48 45 27 7 -10 8 -19
3 -19 -5 0 -12 6 -14 13 -3 6 -4 -2 -4 -20 2 -26 7 -32 29 -35 15 -3 25 -1 22
4 -3 4 2 8 10 8 8 0 17 -4 21 -10 7 -11 35 -2 35 12 0 6 -7 7 -15 4 -9 -3 -18
1 -21 9 -5 13 -9 13 -27 0 -23 -16 -37 -19 -37 -7 0 4 13 15 29 24 26 14 32
14 42 2 6 -7 15 -11 20 -8 5 3 17 0 26 -5 11 -6 13 -11 5 -11 -7 0 -11 -4 -8
-9 4 -5 1 -22 -4 -37 -9 -24 -9 -25 5 -14 8 7 12 17 9 22 -4 7 7 9 30 6 26 -3
36 0 36 10 0 7 4 11 10 7 5 -3 6 -13 3 -22 -4 -11 -2 -14 8 -11 8 3 15 11 15
19 1 8 2 19 3 26 1 7 8 10 18 6 15 -6 15 -7 -1 -13 -16 -5 -16 -8 3 -30 19
-23 20 -24 21 -5 1 11 4 15 6 8 4 -9 11 -9 30 -1 20 9 27 8 38 -7 10 -14 15
-15 21 -5 6 9 9 9 15 0 5 -8 9 -7 13 4 4 9 2 16 -3 16 -6 0 -10 5 -10 10 0 6
11 3 25 -6 26 -17 33 -34 14 -34 -5 0 -7 5 -4 10 3 6 1 10 -5 10 -7 0 -9 -7
-6 -16 3 -9 6 -18 6 -20 0 -13 20 -1 25 16 7 23 40 27 49 5 3 -8 1 -15 -3 -15
-5 0 -11 6 -14 13 -3 6 -4 2 -4 -10 1 -21 3 -22 24 -8 12 8 30 15 39 15 11 0
14 5 10 17 -6 17 -5 17 7 1 8 -10 17 -15 20 -12 9 9 29 -35 21 -49 -4 -6 2 -3
13 8 16 16 17 22 7 28 -8 4 -14 11 -14 16 0 11 59 4 75 -9 16 -13 21 -1 8 16
-5 5 -1 3 7 -6 8 -8 22 -16 30 -16 8 -1 20 -3 25 -4 6 -1 21 -2 35 -1 17 1 21
4 12 10 -10 6 -10 10 3 21 13 11 15 10 10 -2 -7 -18 21 -32 31 -16 4 7 10 6
16 -3 8 -11 11 -12 15 -1 4 10 8 9 17 -4 12 -16 14 -15 34 2 15 13 18 20 10
25 -7 5 -10 11 -6 14 3 3 14 -2 23 -12 10 -9 27 -22 39 -28 25 -12 69 -8 60 7
-4 6 1 6 14 -1 27 -15 37 -14 25 2 -12 15 -13 48 -1 41 5 -3 6 -9 3 -13 -2 -4
6 -22 18 -38 20 -28 24 -29 37 -15 8 9 14 25 12 37 -2 18 -2 19 11 3 13 -16
15 -16 30 0 10 9 17 11 17 5 0 -7 -10 -19 -22 -27 -12 -9 -18 -16 -12 -16 6 0
19 6 29 14 10 7 26 11 36 9 13 -4 20 2 25 21 7 30 24 25 24 -7 0 -22 1 -22 19
2 l19 25 -2 -37 c-3 -32 -1 -35 16 -26 14 8 16 14 8 28 -5 10 -7 21 -3 25 7 7
55 -3 68 -16 10 -9 11 -12 14 -40 0 -6 7 -3 15 7 12 17 16 18 32 5 10 -8 15
-10 12 -5 -4 6 8 17 25 25 18 7 35 18 40 24 5 8 10 6 16 -4 11 -16 13 -15 29
15 9 15 11 16 12 4 0 -22 -30 -57 -36 -41 -8 17 -24 15 -24 -3 0 -18 -20 -20
-20 -2 0 7 -7 4 -15 -7 -8 -11 -15 -27 -14 -35 0 -10 4 -7 10 7 7 19 11 21 23
10 8 -7 12 -16 9 -20 -2 -4 3 -5 11 -2 9 3 16 10 16 16 0 5 -4 6 -10 3 -5 -3
-10 -2 -10 3 0 16 13 22 25 12 8 -6 18 -5 30 4 17 12 21 12 32 -3 10 -14 11
-13 6 7 -3 12 -10 22 -16 22 -6 0 4 11 23 25 19 14 36 22 40 17 3 -4 10 -11
15 -15 6 -6 4 -8 -5 -7 -32 5 -44 -2 -20 -11 21 -7 20 -8 -9 -4 -32 5 -33 4
-19 -12 9 -10 18 -27 21 -38 3 -15 5 -12 6 9 1 24 3 27 16 16 12 -10 15 -10
15 3 0 24 27 42 44 28 11 -9 20 -9 34 -2 35 19 119 22 132 6 7 -8 17 -15 23
-15 7 0 7 4 -1 12 -7 7 -12 17 -12 22 0 6 5 5 11 -1 6 -6 17 -9 24 -7 7 3 16
1 20 -5 3 -6 2 -11 -4 -11 -6 0 -8 -6 -5 -14 9 -23 32 -8 27 17 -5 22 -5 22
11 2 12 -16 17 -17 24 -7 5 8 11 13 13 12 2 -1 18 4 34 10 17 7 25 14 18 17
-7 2 -20 0 -31 -6 -29 -15 -60 26 -33 43 5 4 7 -2 4 -13 -7 -28 13 -34 31 -9
9 12 16 17 16 11 0 -6 14 -16 30 -22 24 -8 30 -7 30 5 0 16 9 18 30 4 12 -8
12 -10 1 -10 -8 0 -12 -3 -8 -6 9 -9 32 9 32 26 0 8 -4 19 -10 23 -6 5 -4 7 5
4 8 -2 14 -9 13 -15 -2 -6 11 -10 28 -10 28 1 30 4 27 30 -3 16 -1 31 4 34 4
3 8 0 8 -5 0 -6 7 -11 15 -11 10 0 12 6 8 18 -6 15 -5 15 10 4 17 -15 34 -9
55 20 11 14 17 15 38 6 15 -7 23 -17 20 -25 -4 -8 -1 -11 5 -8 6 4 8 13 5 20
-2 7 1 18 7 24 8 8 5 19 -11 40 -11 16 -19 31 -16 34 3 3 26 3 50 1 35 -4 44
-2 44 10 0 8 -10 18 -22 22 -19 6 -20 7 -4 16 11 6 22 6 32 -2 7 -7 14 -9 14
-4 0 4 7 -1 15 -12 15 -18 15 -18 8 0 -4 14 -3 17 6 12 6 -4 10 -4 9 1 -2 4 0
8 5 8 4 0 14 13 22 29 15 28 13 46 -6 46 -6 0 -7 -4 -4 -10 4 -6 -1 -7 -11 -3
-14 5 -15 3 -5 -14 8 -17 7 -22 -5 -27 -22 -8 -26 -8 -19 3 6 11 -28 33 -39
26 -3 -3 -4 -2 -1 2 3 3 -3 16 -12 27 -15 18 -14 17 8 -2 17 -14 32 -20 43
-16 12 5 14 9 6 14 -6 4 3 7 20 7 36 0 74 -43 65 -74 -4 -10 2 -2 12 17 16 30
15 49 -2 38 -2 -2 -12 7 -21 20 -10 14 -22 21 -31 17 -13 -4 -13 -3 -4 8 9 11
8 17 -5 28 -13 11 -19 11 -37 -1 -20 -12 -21 -11 -9 2 21 26 51 29 65 7 6 -10
21 -19 32 -19 12 0 27 -6 34 -13 10 -10 11 -8 5 7 -5 13 -1 23 11 32 27 20 9
17 -21 -3 -24 -15 -26 -15 -42 2 -16 18 -16 18 0 6 20 -15 42 -5 34 16 -7 17
19 59 28 45 3 -6 -1 -12 -9 -16 -8 -3 -15 -11 -15 -18 0 -10 2 -10 8 -1 4 7
19 16 32 22 18 7 20 10 8 10 -10 1 -18 8 -18 17 0 9 5 12 12 8 8 -5 9 0 6 14
-4 12 -2 20 3 16 5 -3 9 0 9 6 0 7 6 10 14 7 11 -5 13 0 5 26 l-8 32 19 -24
c11 -13 20 -18 20 -13 0 6 -4 14 -10 17 -5 3 -10 15 -10 27 0 16 3 18 13 9 10
-8 19 -7 33 4 10 8 14 15 9 15 -6 0 -17 -6 -23 -12 -10 -10 -12 -8 -9 10 2 12
12 29 23 38 10 8 12 13 4 9 -10 -4 -9 -2 3 8 9 8 17 22 17 31 0 9 7 19 15 22
8 4 12 10 9 15 -3 5 0 9 7 9 7 0 10 3 6 6 -3 3 7 33 22 67 52 116 90 232 105
322 14 77 16 240 16 1168 0 1069 0 1078 20 1105 20 27 21 39 18 339 -3 280 -5
313 -20 330 -16 17 -18 44 -18 234 0 308 -23 454 -97 629 -52 124 -116 227
-200 324 -213 247 -495 400 -817 445 -53 8 -520 11 -1464 10 -1304 -1 -1393
-2 -1492 -19z m2962 -334 c152 -30 282 -90 402 -186 146 -118 274 -306 328
-480 l23 -75 3 -1640 c2 -1140 -1 -1665 -8 -1723 -12 -93 -64 -247 -112 -332
-73 -130 -206 -268 -327 -340 -86 -51 -211 -96 -306 -110 -93 -13 -2766 -13
-2892 0 -177 19 -352 101 -502 236 -113 102 -215 272 -263 439 l-23 80 0 1680
c0 1875 -6 1713 70 1888 50 116 92 181 174 269 151 161 308 251 511 293 99 20
2816 21 2922 1z m756 -4910 c-13 -13 -25 -22 -27 -20 -6 5 30 44 41 44 5 0 -2
-11 -14 -24z m-137 -119 c-10 -9 -11 -8 -5 6 3 10 9 15 12 12 3 -3 0 -11 -7
-18z m139 -47 c0 -5 -5 -10 -11 -10 -5 0 -7 5 -4 10 3 6 8 10 11 10 2 0 4 -4
4 -10z m-200 -34 c-7 -7 -13 -7 -20 0 -6 6 -3 10 10 10 13 0 16 -4 10 -10z
m-13 -38 c-3 -8 -6 -5 -6 6 -1 11 2 17 5 13 3 -3 4 -12 1 -19z m-231 -96 c-3
-3 0 -12 6 -21 10 -13 10 -14 -2 -4 -16 15 -23 46 -8 37 5 -3 7 -9 4 -12z m42
-8 c0 -17 -3 -22 -8 -13 -5 6 -6 18 -3 26 8 19 11 16 11 -13z m188 -3 c-4 -6
-12 -11 -18 -11 -7 0 -7 4 1 13 6 8 9 16 7 19 -1 3 1 2 7 -2 5 -5 6 -13 3 -19z
m-78 2 c-5 -7 -13 -12 -16 -11 -19 2 -25 -3 -12 -12 8 -5 11 -12 7 -17 -12
-11 -27 19 -17 33 6 6 8 13 6 15 -2 2 6 4 19 4 17 0 21 -3 13 -12z m-2578 -12
c-74 -3 -139 -3 -144 2 -6 4 55 6 135 5 l144 -2 -135 -5z m257 -13 c-3 -8 -6
-5 -6 6 -1 11 2 17 5 13 3 -3 4 -12 1 -19z m223 2 c-6 -11 -12 -20 -14 -20 -2
0 -2 9 1 20 3 11 9 20 15 20 5 0 4 -9 -2 -20z m123 13 c-7 -2 -21 -2 -30 0
-10 3 -4 5 12 5 17 0 24 -2 18 -5z m125 0 c-10 -2 -26 -2 -35 0 -10 3 -2 5 17
5 19 0 27 -2 18 -5z m-644 -52 c-5 -6 -34 20 -34 30 0 5 8 1 18 -8 10 -10 17
-20 16 -22z m146 25 c0 -2 -8 -10 -17 -17 -16 -13 -17 -12 -4 4 13 16 21 21
21 13z m-59 -33 c-12 -20 -14 -14 -5 12 4 9 9 14 11 11 3 -2 0 -13 -6 -23z
m2297 0 c2 -13 -1 -23 -6 -23 -6 0 -8 9 -5 19 4 14 -1 21 -19 24 -22 5 -22 5
2 4 18 -2 26 -9 28 -24z m-2458 1 c0 -3 -7 -12 -15 -21 -20 -19 -32 -10 -14
11 14 15 29 21 29 10z m280 -18 c0 -2 -7 -7 -16 -10 -8 -3 -12 -2 -9 4 6 10
25 14 25 6z m77 -12 c-3 -3 -12 -4 -19 -1 -8 3 -5 6 6 6 11 1 17 -2 13 -5z
m203 2 c0 -2 -7 -7 -16 -10 -8 -3 -12 -2 -9 4 6 10 25 14 25 6z m-183 -41 c-7
-13 -14 -20 -15 -14 -2 5 2 16 8 24 18 21 20 18 7 -10z m43 9 c0 -8 -5 -12
-10 -9 -6 4 -8 11 -5 16 9 14 15 11 15 -7z m1720 6 c0 -5 -8 -10 -17 -10 -15
0 -16 2 -3 10 19 12 20 12 20 0z m-1595 -10 c3 -5 1 -10 -4 -10 -6 0 -11 5
-11 10 0 6 2 10 4 10 3 0 8 -4 11 -10z m1299 1 c4 -5 -3 -7 -14 -4 -23 6 -26
13 -6 13 8 0 17 -4 20 -9z m380 1 c3 -5 -1 -9 -9 -9 -8 0 -12 4 -9 9 3 4 7 8
9 8 2 0 6 -4 9 -8z m-204 -6 c0 -3 -4 -8 -10 -11 -5 -3 -10 -1 -10 4 0 6 5 11
10 11 6 0 10 -2 10 -4z m-1625 -16 c3 -5 1 -10 -4 -10 -6 0 -11 5 -11 10 0 6
2 10 4 10 3 0 8 -4 11 -10z m593 -15 c13 5 12 1 -3 -17 -11 -13 -20 -24 -20
-24 0 -1 -7 5 -15 14 -13 14 -12 15 3 9 14 -5 16 -2 14 16 -2 12 -2 16 0 9 3
-8 12 -11 21 -7z m347 -10 c-1 -14 2 -25 7 -25 5 0 6 -5 3 -11 -10 -15 -16 -6
-21 36 -2 21 0 34 5 31 5 -4 8 -17 6 -31z m650 26 c3 -5 1 -12 -4 -15 -5 -3
-11 1 -15 9 -6 16 9 21 19 6z m-251 -18 c-10 -7 -23 -13 -30 -13 -7 0 -14 -5
-16 -12 -3 -7 -7 -6 -11 5 -5 13 -1 17 18 17 14 0 25 4 25 8 0 5 7 9 16 9 14
0 14 -2 -2 -14z m-77 -13 c1 -11 -2 -22 -6 -24 -6 -4 -7 26 -2 42 3 8 7 -1 8
-18z"/>
<path d="M5775 6979 c-352 -34 -438 -509 -123 -680 59 -32 69 -34 158 -34 88
0 101 3 162 33 74 36 132 95 170 170 20 40 23 62 23 152 0 96 -3 110 -29 163
-16 32 -51 77 -76 101 -86 80 -166 107 -285 95z"/>
<path d="M6180 6188 l-174 -178 77 -78 77 -77 70 70 c38 38 71 67 72 64 2 -2
14 -16 27 -31 l24 -28 -183 -185 c-101 -102 -187 -185 -190 -185 -7 0 -88 122
-185 279 -99 159 -159 212 -288 253 -54 17 -99 21 -332 25 -426 8 -539 -11
-631 -104 -55 -54 -128 -202 -327 -658 -61 -140 -19 -268 105 -319 84 -36 200
-2 251 72 25 36 176 357 234 497 l29 70 147 3 c81 1 147 -1 147 -6 0 -12 -123
-375 -220 -647 -45 -126 -92 -258 -103 -292 -17 -47 -43 -87 -108 -165 -48
-57 -171 -206 -275 -333 -103 -126 -262 -320 -354 -430 -327 -393 -339 -411
-340 -496 0 -66 40 -141 97 -178 77 -51 146 -53 233 -4 48 26 43 21 438 503
132 162 333 406 446 542 112 136 209 255 214 264 9 16 30 9 218 -69 115 -48
226 -96 248 -105 l38 -18 -108 -42 c-60 -23 -197 -73 -304 -112 -107 -39 -213
-83 -235 -98 -82 -57 -120 -150 -96 -238 14 -52 74 -122 125 -145 73 -33 105
-26 403 85 153 57 346 127 428 156 83 28 168 62 191 75 57 33 121 100 152 160
24 44 27 61 27 150 0 117 -15 155 -96 240 -57 60 -56 60 -414 214 -154 67
-283 125 -288 130 -8 8 156 517 172 534 5 5 23 -16 42 -45 57 -89 127 -167
172 -190 33 -18 59 -23 122 -23 70 0 88 4 145 32 56 27 88 56 227 205 89 95
195 206 236 246 70 70 74 72 90 54 16 -18 14 -22 -40 -82 l-57 -63 78 -74 78
-75 163 168 164 168 -29 35 c-16 20 -50 58 -77 84 l-49 48 -64 -66 -63 -66
-38 37 c-23 23 -40 50 -44 72 -16 83 -64 136 -141 153 -45 10 -60 20 -98 64
l-45 52 65 64 64 63 -77 78 c-43 43 -80 77 -83 77 -3 -1 -84 -82 -180 -181z"/>
<path d="M4615 3386 c-79 -35 -107 -120 -62 -187 49 -74 -30 -69 1137 -67 989
3 1047 4 1073 21 37 24 67 75 67 112 0 37 -30 88 -67 112 -26 17 -84 18 -1073
20 -854 2 -1051 0 -1075 -11z"/>
<path d="M7640 2726 c0 -2 7 -7 16 -10 8 -3 12 -2 9 4 -6 10 -25 14 -25 6z"/>
<path d="M7600 2651 c0 -6 4 -13 10 -16 6 -3 7 1 4 9 -7 18 -14 21 -14 7z"/>
<path d="M7590 2579 c0 -5 5 -7 10 -4 6 3 10 8 10 11 0 2 -4 4 -10 4 -5 0 -10
-5 -10 -11z"/>
<path d="M7486 2496 c27 -18 56 -28 49 -16 -3 6 -13 10 -21 10 -8 0 -13 4 -10
8 2 4 -5 9 -16 9 -20 2 -20 2 -2 -11z"/>
<path d="M7313 2304 c19 -18 37 -38 40 -46 3 -7 5 -1 4 14 -1 15 -5 24 -9 22
-5 -3 -14 1 -22 9 -12 11 -9 13 19 13 18 -1 31 -4 28 -8 -2 -5 0 -8 6 -8 5 0
9 8 8 18 -1 14 -11 17 -55 17 l-54 0 35 -31z"/>
<path d="M7416 2327 c3 -10 9 -15 12 -12 3 3 0 11 -7 18 -10 9 -11 8 -5 -6z"/>
<path d="M4434 2248 c-4 -7 -4 -10 1 -6 4 4 14 3 22 -4 11 -8 12 -7 7 6 -7 19
-20 21 -30 4z"/>
<path d="M7251 2223 c-7 -8 -11 -16 -8 -19 2 -2 10 2 17 11 17 20 9 27 -9 8z"/>
<path d="M4406 2213 c-6 -14 -5 -15 5 -6 7 7 10 15 7 18 -3 3 -9 -2 -12 -12z"/>
<path d="M4441 2211 c-8 -5 -9 -11 -3 -15 5 -3 12 1 16 9 6 17 6 18 -13 6z"/>
<path d="M7190 2201 c0 -6 5 -13 10 -16 6 -3 10 1 10 9 0 9 -4 16 -10 16 -5 0
-10 -4 -10 -9z"/>
<path d="M4539 2153 c-13 -15 -12 -15 9 -4 23 12 28 21 13 21 -5 0 -15 -7 -22
-17z"/>
<path d="M7161 2154 c-7 -8 -10 -18 -6 -22 4 -4 10 -1 12 6 3 6 9 10 14 7 5
-4 6 1 3 9 -7 19 -6 19 -23 0z"/>
<path d="M7088 2133 c7 -3 16 -2 19 1 4 3 -2 6 -13 5 -11 0 -14 -3 -6 -6z"/>
<path d="M4536 2103 c-6 -14 -5 -15 5 -6 7 7 10 15 7 18 -3 3 -9 -2 -12 -12z"/>
<path d="M7007 2114 c-3 -5 1 -15 9 -22 16 -14 18 -5 5 17 -5 7 -11 9 -14 5z"/>
<path d="M7135 2110 c3 -5 8 -10 11 -10 2 0 4 5 4 10 0 6 -5 10 -11 10 -5 0
-7 -4 -4 -10z"/>
<path d="M6695 2099 c-45 -7 -38 -12 13 -9 20 1 32 -3 32 -11 0 -7 3 -10 6 -6
3 3 2 11 -3 19 -5 9 -20 11 -48 7z"/>
<path d="M6750 2101 c0 -5 6 -14 14 -21 8 -6 12 -18 9 -26 -7 -18 4 -18 23 1
14 13 14 15 0 15 -8 0 -18 9 -21 20 -6 20 -25 28 -25 11z"/>
<path d="M4884 2080 c0 -13 4 -16 10 -10 7 7 7 13 0 20 -6 6 -10 3 -10 -10z"/>
<path d="M6230 2082 c14 -12 25 -28 25 -38 0 -9 10 -20 23 -25 15 -6 21 -5 17
1 -3 6 -13 10 -21 10 -10 0 -13 8 -9 30 4 22 1 30 -9 30 -8 0 -23 3 -33 6 -13
4 -11 0 7 -14z"/>
<path d="M6580 2079 c0 -5 5 -7 10 -4 6 3 10 8 10 11 0 2 -4 4 -10 4 -5 0 -10
-5 -10 -11z"/>
<path d="M4920 2070 c-9 -6 -10 -10 -3 -10 6 0 15 5 18 10 8 12 4 12 -15 0z"/>
<path d="M5010 2071 c0 -6 4 -12 8 -15 5 -3 9 1 9 9 0 8 -4 15 -9 15 -4 0 -8
-4 -8 -9z"/>
<path d="M6681 2060 c-9 -5 -4 -7 13 -7 29 0 32 2 13 10 -8 3 -20 2 -26 -3z"/>
<path d="M5653 2044 c-3 -8 -1 -20 5 -26 8 -8 9 -4 5 12 -5 20 -4 21 15 11 30
-16 39 -14 16 4 -25 19 -33 19 -41 -1z"/>
<path d="M5730 2051 c0 -5 7 -15 17 -22 15 -13 15 -12 4 9 -12 23 -21 28 -21
13z"/>
<path d="M6130 2038 c0 -24 17 -23 30 1 8 17 7 20 -10 18 -12 -1 -20 -8 -20
-19z"/>
<path d="M6466 2052 c-2 -4 4 -14 15 -20 19 -12 19 -11 9 8 -12 22 -16 24 -24
12z"/>
<path d="M6590 2056 c0 -2 9 -6 20 -9 11 -3 20 -1 20 4 0 5 -9 9 -20 9 -11 0
-20 -2 -20 -4z"/>
<path d="M5510 2040 c0 -5 5 -10 10 -10 6 0 10 5 10 10 0 6 -4 10 -10 10 -5 0
-10 -4 -10 -10z"/>
<path d="M5935 2040 c3 -5 11 -10 16 -10 6 0 7 5 4 10 -3 6 -11 10 -16 10 -6
0 -7 -4 -4 -10z"/>
<path d="M6310 2040 c0 -5 5 -10 10 -10 6 0 10 5 10 10 0 6 -4 10 -10 10 -5 0
-10 -4 -10 -10z"/>
<path d="M5860 2020 c8 -5 24 -10 34 -10 26 0 18 6 -19 14 -22 5 -26 4 -15 -4z"/>
<path d="M5695 2009 c-4 -6 -5 -12 -2 -15 2 -3 7 2 10 11 7 17 1 20 -8 4z"/>
<path d="M6350 2000 c0 -5 5 -10 10 -10 6 0 10 5 10 10 0 6 -4 10 -10 10 -5 0
-10 -4 -10 -10z"/>
</g>
</svg>
